<svg xmlns="http://www.w3.org/2000/svg" width="1055" height="578.882" viewBox="0 0 1055 578.882">
  <g id="undraw_page_not_found_su7k" transform="translate(-13.143 -5.349)">
    <ellipse id="Ellipse_1" data-name="Ellipse 1" cx="527.5" cy="34.922" rx="527.5" ry="34.922" transform="translate(13.143 514.388)" fill="#f5f6fa"/>
    <path id="Path_1" data-name="Path 1" d="M583.48,324.894c-85.944,0-147.651,55.139-147.651,183.8,0,145.813,61.707,184.411,147.651,184.411s151.327-42.273,151.327-184.411C734.807,356.753,669.424,324.894,583.48,324.894Zm.565,319.808c-59.527,0-90.626-34.923-90.626-135.916,0-89.112,32.372-136.1,91.9-136.1s91.9,30.868,91.9,136.1C677.217,607.234,643.571,644.7,584.045,644.7Z" transform="translate(-63.054 -157.885)" fill="#2f2e41"/>
    <path id="Path_2" data-name="Path 2" d="M384.365,591.4H348.831V486.762a20.956,20.956,0,0,0-20.956-20.956h-8.326a20.956,20.956,0,0,0-20.956,20.956V591.4H198.363a11.963,11.963,0,0,1-10.578-17.552l106.082-200.78a20.956,20.956,0,0,0-9.58-28.739l-6.262-2.957a20.956,20.956,0,0,0-27.429,9.07L121.214,592.475a28.416,28.416,0,0,0-3.356,13.4h0a28.416,28.416,0,0,0,28.416,28.416H298.593v66.167a25.119,25.119,0,0,0,25.119,25.119h0a25.119,25.119,0,0,0,25.119-25.119V634.287h35.534a21.443,21.443,0,0,0,21.443-21.443h0A21.443,21.443,0,0,0,384.365,591.4Z" transform="translate(-63.054 -157.885)" fill="#0064ff"/>
    <path id="Path_3" data-name="Path 3" d="M1042.362,591.4h-35.534V486.762a20.956,20.956,0,0,0-20.956-20.956h-8.326a20.956,20.956,0,0,0-20.956,20.956V591.4H856.359a11.963,11.963,0,0,1-10.578-17.552l106.082-200.78a20.956,20.956,0,0,0-9.58-28.739l-6.262-2.957a20.956,20.956,0,0,0-27.429,9.07L779.211,592.475a28.416,28.416,0,0,0-3.356,13.4h0a28.416,28.416,0,0,0,28.416,28.416H956.589v66.167a25.119,25.119,0,0,0,25.119,25.119h0a25.119,25.119,0,0,0,25.119-25.119V634.287h35.534a21.443,21.443,0,0,0,21.443-21.443h0a21.443,21.443,0,0,0-21.443-21.443Z" transform="translate(-63.054 -157.885)" fill="#0064ff"/>
    <path id="Path_8" data-name="Path 8" d="M639.3,342.073c-.777,3.193-4.128,5.751-7.839,7.538-7.8,3.757-17.425,4.878-26.76,5.254a45.179,45.179,0,0,1-7.144-.132A20.537,20.537,0,0,1,585.3,349.1a1.681,1.681,0,0,1,.044-2.844c4.969-5.459,13.262-8.806,21.616-11.216,6.334-1.827,17.381-6.561,24.29-5.922C637.944,329.739,640.277,338.041,639.3,342.073Z" transform="translate(-63.054 -157.885)" fill="#3f3d56"/>
    <path id="Path_9" data-name="Path 9" d="M639.3,342.073c-.777,3.193-4.128,5.751-7.839,7.538-7.8,3.757-17.425,4.878-26.76,5.254a45.179,45.179,0,0,1-7.144-.132A20.537,20.537,0,0,1,585.3,349.1a1.681,1.681,0,0,1,.044-2.844c4.969-5.459,13.262-8.806,21.616-11.216,6.334-1.827,17.381-6.561,24.29-5.922C637.944,329.739,640.277,338.041,639.3,342.073Z" transform="translate(-63.054 -157.885)" opacity="0.1"/>
    <path id="Path_18" data-name="Path 18" d="M595.554,163.234c-.158,0-.315.006-.472.012a12.9,12.9,0,0,1,0,25.778c.157.006.314.012.472.012a12.9,12.9,0,1,0,0-25.8Z" transform="translate(-63.054 -157.885)" opacity="0.1"/>
    <path id="Path_19" data-name="Path 19" d="M534.2,163.234c.158,0,.315.006.472.012a12.9,12.9,0,0,0,0,25.778c-.157.006-.314.012-.472.012a12.9,12.9,0,0,1,0-25.8Z" transform="translate(-63.054 -157.885)" opacity="0.1"/>
  </g>
</svg>
