<svg aria-hidden="true" style="position: absolute; width: 0; height: 0; overflow: hidden;" version="1.1" xmlns="http://www.w3.org/2000/svg" xmlns:xlink="http://www.w3.org/1999/xlink">
<defs>
<symbol id="icon-grid" viewBox="0 0 32 32">
<path d="M8 15h7v-7h-7v7zM17 8v7h7v-7h-7zM17 24h7v-7h-7v7zM8 24h7v-7h-7v7z"></path>
</symbol>
<symbol id="icon-total-proce-item" viewBox="0 0 32 32">
<path d="M23.252 0v0c0.254 0.25 0.506 0.502 0.757 0.755-0.503 0.505-1.009 1.008-1.511 1.514-0.256-0.248-0.506-0.502-0.758-0.754 0.503-0.506 1.009-1.008 1.512-1.515z"></path>
<path d="M8.111 0.755c0.252-0.251 0.503-0.503 0.757-0.754 0.506 0.503 1.009 1.009 1.513 1.514-0.251 0.253-0.503 0.503-0.756 0.754-0.505-0.505-1.010-1.009-1.514-1.514z"></path>
<path d="M15.753 0.464c1.296-0.056 2.605 0.237 3.755 0.836 1.698 0.881 3.035 2.434 3.643 4.249 0.287 0.836 0.406 1.723 0.401 2.605-0.042 1.793-0.765 3.557-1.986 4.871-1.094 1.194-2.584 2.018-4.18 2.303-0.975 0.174-1.986 0.158-2.954-0.058-1.197-0.263-2.327-0.829-3.253-1.631-1.581-1.343-2.557-3.367-2.61-5.441-0.123-2.407 1.065-4.811 2.995-6.24 1.2-0.91 2.684-1.432 4.187-1.493zM15.274 1.574c-1.189 0.15-2.339 0.631-3.265 1.395-1.041 0.84-1.806 2.016-2.155 3.307-0.271 0.986-0.283 2.035-0.073 3.033 0.27 1.251 0.926 2.415 1.856 3.296 0.747 0.712 1.667 1.242 2.66 1.521 1.849 0.543 3.935 0.177 5.495-0.953 1.345-0.957 2.298-2.449 2.587-4.075 0.164-0.879 0.126-1.791-0.081-2.66-0.451-1.907-1.831-3.563-3.624-4.353-1.059-0.477-2.248-0.65-3.401-0.511z"></path>
<path d="M15.526 2.062c0.356-0.001 0.712-0.002 1.068 0 0.004 0.374-0 0.748 0.001 1.122 0.674 0.139 1.286 0.546 1.671 1.116 0.307 0.439 0.461 0.974 0.47 1.507-0.357 0.001-0.713 0-1.069 0-0.008-0.495-0.243-0.987-0.646-1.28-0.545-0.426-1.374-0.426-1.92-0.003-0.443 0.321-0.698 0.885-0.639 1.429 0.049 0.632 0.514 1.209 1.123 1.386 0.262 0.094 0.546 0.063 0.818 0.101 0.81 0.095 1.556 0.595 1.964 1.301 0.369 0.634 0.474 1.425 0.253 2.127-0.195 0.644-0.647 1.202-1.228 1.54-0.249 0.142-0.52 0.235-0.795 0.309-0 0.374 0 0.748 0 1.122-0.357 0.002-0.714 0.001-1.071 0 0-0.374 0-0.748 0-1.123-0.666-0.147-1.28-0.537-1.664-1.105-0.311-0.443-0.479-0.983-0.477-1.524 0.357-0.001 0.713-0.001 1.070-0 0.002 0.387 0.144 0.773 0.404 1.061 0.342 0.397 0.889 0.603 1.408 0.531 0.651-0.076 1.219-0.593 1.359-1.234 0.102-0.437 0.005-0.915-0.256-1.28-0.294-0.429-0.809-0.687-1.328-0.682-0.676-0.003-1.347-0.272-1.831-0.745-0.489-0.463-0.79-1.118-0.822-1.79-0.057-0.764 0.261-1.537 0.811-2.064 0.363-0.356 0.83-0.595 1.325-0.701 0.002-0.374-0.001-0.748 0.002-1.122z"></path>
<path d="M5.354 7.415c0.714-0.001 1.427-0 2.14 0 0.002 0.357 0.002 0.713 0 1.070-0.713 0-1.427 0.001-2.14-0-0.001-0.357-0-0.713-0-1.070z"></path>
<path d="M24.628 7.414c0.713 0.001 1.426-0.001 2.139 0.002 0.002 0.356 0.002 0.712 0 1.068-0.714 0.003-1.427 0.002-2.14 0 0-0.357-0.003-0.714 0.001-1.070z"></path>
<path d="M22.494 13.626c0.506 0.503 1.009 1.009 1.515 1.513-0.251 0.253-0.504 0.503-0.756 0.755-0.506-0.501-1.010-1.004-1.513-1.508 0.249-0.255 0.503-0.506 0.755-0.759z"></path>
<path d="M8.111 15.14c0.505-0.502 1.008-1.006 1.514-1.507 0.253 0.25 0.505 0.501 0.755 0.753-0.503 0.506-1.008 1.010-1.512 1.514-0.253-0.252-0.506-0.506-0.757-0.76z"></path>
<path d="M15.525 16.44c0.357-0.001 0.714-0.002 1.070 0 0 0.713 0.001 1.427 0 2.14-0.357 0.001-0.713 0-1.070 0-0.002-0.714-0-1.427-0-2.14z"></path>
<path d="M15.633 19.867c0.198-0.273 0.663-0.269 0.859 0.006 0.535 0.711 1.069 1.421 1.602 2.133-0.285 0.215-0.57 0.429-0.856 0.644-0.216-0.284-0.425-0.574-0.644-0.856 0.002 1.606 0.001 3.212 0.001 4.818-0.357 0.002-0.714 0.001-1.070 0.001-0.001-1.607 0-3.213-0-4.819-0.216 0.284-0.427 0.572-0.642 0.857-0.286-0.214-0.572-0.428-0.855-0.644 0.534-0.714 1.070-1.425 1.605-2.138z"></path>
<path d="M8.963 19.985c0.294-0.132 0.663 0.072 0.723 0.384 0.181 0.894 0.358 1.789 0.537 2.683-0.35 0.071-0.7 0.141-1.049 0.209-0.077-0.379-0.151-0.759-0.229-1.138-1.2 2.021-2.911 3.727-4.919 4.945-0.185-0.305-0.372-0.608-0.554-0.914 0.794-0.503 1.56-1.057 2.239-1.708 0.923-0.864 1.72-1.861 2.361-2.951-0.462 0.183-0.923 0.371-1.385 0.555-0.134-0.329-0.266-0.66-0.397-0.99 0.89-0.36 1.782-0.717 2.674-1.074z"></path>
<path d="M22.435 20.362c0.061-0.301 0.413-0.5 0.7-0.385 0.9 0.357 1.797 0.721 2.696 1.080-0.13 0.331-0.264 0.661-0.397 0.992-0.462-0.183-0.923-0.371-1.385-0.555 1.113 1.906 2.721 3.509 4.601 4.66-0.184 0.305-0.369 0.609-0.555 0.913-2.012-1.213-3.719-2.925-4.92-4.944-0.077 0.38-0.152 0.759-0.23 1.139-0.35-0.071-0.699-0.139-1.049-0.21 0.179-0.897 0.357-1.794 0.538-2.69z"></path>
<path d="M0.67 28.265c0.396-0.378 0.943-0.594 1.49-0.583 0.532-0.001 1.059 0.213 1.443 0.58 0.376 0.351 0.617 0.842 0.662 1.355 0.074 0.586-0.137 1.191-0.527 1.629-0.412 0.471-1.038 0.731-1.66 0.727-0.405-0.028-0.81-0.144-1.143-0.38-0.548-0.363-0.896-0.995-0.935-1.649v-0.305c0.051-0.518 0.286-1.019 0.67-1.373zM1.823 28.804c-0.458 0.13-0.788 0.607-0.75 1.082 0.017 0.468 0.382 0.894 0.841 0.983 0.329 0.069 0.69-0.018 0.938-0.249 0.27-0.232 0.405-0.609 0.344-0.96-0.052-0.337-0.275-0.644-0.58-0.796-0.245-0.116-0.533-0.144-0.792-0.060z"></path>
<path d="M15.669 27.716c0.474-0.085 0.975-0.012 1.399 0.218 0.608 0.323 1.041 0.955 1.112 1.641 0.073 0.513-0.068 1.047-0.364 1.469-0.335 0.491-0.886 0.823-1.474 0.902-0.341 0.066-0.692-0.001-1.018-0.11-0.62-0.222-1.119-0.748-1.31-1.377-0.167-0.541-0.12-1.151 0.156-1.648 0.299-0.567 0.868-0.98 1.498-1.094zM15.789 28.791c-0.465 0.109-0.815 0.57-0.799 1.046 0.004 0.286 0.123 0.57 0.335 0.763 0.233 0.228 0.575 0.33 0.896 0.278 0.448-0.058 0.83-0.438 0.895-0.885 0.073-0.429-0.149-0.886-0.526-1.1-0.241-0.134-0.534-0.176-0.801-0.103z"></path>
<path d="M29.6 27.713c0.462-0.081 0.949-0.011 1.366 0.208 0.535 0.278 0.943 0.793 1.085 1.38 0.126 0.493 0.075 1.031-0.161 1.484-0.299 0.603-0.897 1.042-1.56 1.15-0.889 0.17-1.849-0.32-2.252-1.127-0.307-0.589-0.325-1.326-0.027-1.922 0.292-0.608 0.886-1.057 1.55-1.173zM29.638 28.811c-0.447 0.139-0.765 0.607-0.727 1.074 0.015 0.36 0.23 0.698 0.544 0.872 0.464 0.271 1.114 0.119 1.409-0.331 0.31-0.433 0.212-1.080-0.194-1.418-0.277-0.241-0.685-0.316-1.031-0.197z"></path>
</symbol>
<symbol id="icon-total-sales" viewBox="0 0 32 32">
<path d="M0.67 0h4.456c0.336 0.012 0.654 0.271 0.688 0.613 0.161 1.261 0.315 2.522 0.474 3.784 8.38 0.001 16.761 0 25.141 0.001 0.277 0.010 0.465 0.253 0.55 0.495-0.015 0.168-0.027 0.338-0.059 0.503-1.419 4.611-2.838 9.222-4.257 13.833-0.060 0.181-0.092 0.383-0.227 0.527-0.128 0.144-0.315 0.228-0.506 0.235-5.268 0.311-10.536 0.63-15.805 0.941-0.621 0.665-1.238 1.335-1.856 2.004 5.855 0.001 11.711-0.001 17.566 0.001 0.413-0.023 0.78 0.359 0.748 0.769-0.016 0.382-0.372 0.697-0.751 0.681-6.31 0.001-12.621 0-18.932 0.001-0.194-0.005-0.399 0.025-0.581-0.059-0.231-0.098-0.408-0.325-0.425-0.579-0.027-0.238 0.072-0.475 0.234-0.645 0.641-0.697 1.28-1.396 1.921-2.094-0.471 0.021-0.942 0.054-1.413 0.070-0.355 0.015-0.703-0.262-0.732-0.623-0.824-6.335-1.646-12.67-2.471-19.005-1.243-0.001-2.486 0-3.729-0.001-0.361 0.004-0.676-0.305-0.704-0.661v-0.149c0.042-0.336 0.332-0.613 0.67-0.64zM6.47 5.816c0.593 4.592 1.186 9.184 1.78 13.776 6.033-0.339 12.066-0.681 18.099-1.020 1.31-4.251 2.617-8.504 3.926-12.755-7.935-0-15.87-0-23.805 0z"></path>
<path d="M18.327 7.776c0.233-0.188 0.596-0.194 0.835-0.012 0.094 0.073 0.161 0.19 0.154 0.311-0.031 0.313-0.012 0.627-0.017 0.941 0.593 0.129 1.168 0.418 1.557 0.894 0.297 0.361 0.463 0.833 0.434 1.3-0.050 0.313-0.377 0.516-0.68 0.493-0.296-0.001-0.599-0.226-0.617-0.534-0.009-0.213-0.064-0.429-0.198-0.598-0.335-0.436-0.952-0.595-1.472-0.447-0.381 0.098-0.735 0.364-0.872 0.742-0.103 0.277-0.004 0.592 0.18 0.812 0.264 0.313 0.68 0.468 1.084 0.461 0.461-0.008 0.928 0.079 1.339 0.293 0.937 0.462 1.452 1.701 1.003 2.667-0.332 0.723-1.071 1.177-1.831 1.332 0.001 0.231-0.002 0.462 0 0.693 0 0.144 0.057 0.304-0.035 0.433-0.17 0.265-0.557 0.311-0.825 0.18-0.144-0.068-0.265-0.22-0.25-0.385 0.037-0.305 0.013-0.614 0.019-0.92-0.596-0.141-1.183-0.422-1.569-0.912-0.294-0.363-0.459-0.837-0.421-1.305 0.105-0.516 0.865-0.635 1.174-0.238 0.172 0.191 0.090 0.468 0.2 0.685 0.237 0.529 0.863 0.809 1.422 0.734 0.422-0.052 0.846-0.3 1.016-0.703 0.128-0.291 0.065-0.643-0.127-0.892-0.178-0.23-0.442-0.389-0.725-0.456-0.258-0.070-0.527-0.024-0.789-0.062-0.637-0.068-1.284-0.354-1.665-0.886-0.323-0.434-0.502-0.991-0.429-1.532 0.066-0.491 0.338-0.942 0.718-1.255 0.361-0.308 0.808-0.5 1.269-0.598-0.006-0.313 0.019-0.627-0.021-0.938-0.007-0.115 0.054-0.227 0.141-0.3z"></path>
<path d="M7.115 25.481c0.701-0.11 1.438 0.008 2.064 0.343 0.74 0.394 1.315 1.085 1.565 1.886 0.17 0.551 0.207 1.147 0.082 1.711-0.181 0.834-0.704 1.591-1.428 2.046-1.107 0.727-2.657 0.678-3.715-0.119-0.672-0.493-1.141-1.254-1.276-2.077-0.135-0.778 0.011-1.606 0.432-2.276 0.486-0.807 1.343-1.376 2.275-1.514zM7.169 26.955c-0.592 0.144-1.092 0.611-1.272 1.194-0.258 0.784 0.080 1.732 0.81 2.135 0.55 0.325 1.273 0.328 1.827 0.009 0.427-0.234 0.742-0.656 0.859-1.127 0.173-0.675-0.069-1.446-0.624-1.876-0.441-0.355-1.054-0.477-1.6-0.335z"></path>
<path d="M23.723 25.501c0.726-0.14 1.499-0.032 2.154 0.313 0.698 0.365 1.252 0.993 1.529 1.731 0.23 0.621 0.281 1.313 0.12 1.958-0.185 0.76-0.656 1.447-1.299 1.893-1.025 0.729-2.478 0.785-3.554 0.132-0.725-0.423-1.267-1.143-1.482-1.953-0.196-0.738-0.142-1.545 0.183-2.239 0.428-0.941 1.329-1.651 2.348-1.834zM23.898 26.952c-0.569 0.136-1.057 0.568-1.256 1.118-0.276 0.73-0.030 1.627 0.602 2.094 0.453 0.344 1.068 0.452 1.612 0.294 0.543-0.15 1.001-0.569 1.194-1.098 0.279-0.723 0.042-1.616-0.581-2.085-0.437-0.343-1.035-0.459-1.571-0.323z"></path>
</symbol>
<symbol id="icon-wrong" viewBox="0 0 32 32">
<path d="M1.74 3.215c0.63-1.267 2.125-2.028 3.52-1.766 0.727 0.111 1.388 0.494 1.903 1.012 2.932 2.935 5.865 5.867 8.794 8.806 2.718-2.715 5.436-5.431 8.153-8.148 0.635-0.642 1.283-1.361 2.197-1.587 1.425-0.44 3.093 0.238 3.806 1.548 0.508 0.891 0.574 2.020 0.154 2.958-0.234 0.558-0.646 1.011-1.076 1.426-2.839 2.839-5.682 5.675-8.52 8.516 2.58 2.59 5.166 5.173 7.749 7.759 0.631 0.669 1.391 1.25 1.8 2.096 0.351 0.744 0.392 1.622 0.142 2.405-0.484 1.655-2.441 2.712-4.083 2.161-0.588-0.164-1.11-0.509-1.539-0.937-2.929-2.923-5.847-5.859-8.775-8.783-2.746 2.743-5.491 5.487-8.237 8.229-0.438 0.428-0.849 0.907-1.399 1.199-0.758 0.425-1.693 0.577-2.529 0.298-0.672-0.19-1.263-0.62-1.704-1.155-0.763-0.94-0.917-2.317-0.405-3.41 0.181-0.411 0.454-0.771 0.77-1.088 2.932-2.93 5.864-5.86 8.795-8.79-2.764-2.763-5.525-5.53-8.288-8.294-0.425-0.444-0.917-0.847-1.198-1.406-0.499-0.932-0.514-2.106-0.032-3.047z"></path>
</symbol>
<symbol id="icon-correct" viewBox="0 0 40 32">
<path d="M35.417 1.279c0.966-0.25 2.043 0.071 2.729 0.791 0.752 0.777 0.993 2.001 0.582 3.002-0.149 0.394-0.407 0.733-0.702 1.029-7.861 7.865-15.727 15.724-23.586 23.59-0.52 0.588-1.225 1.066-2.027 1.117-0.826 0.068-1.677-0.222-2.262-0.816-2.706-2.801-5.415-5.602-8.119-8.405-0.524-0.555-0.867-1.301-0.846-2.072-0.019-1.294 0.986-2.503 2.258-2.731 0.823-0.194 1.717 0.039 2.366 0.572 0.225 0.188 0.431 0.397 0.633 0.611 1.912 1.982 3.825 3.963 5.741 5.942 7.196-7.193 14.39-14.389 21.585-21.584 0.449-0.479 0.992-0.905 1.647-1.047z"></path>
</symbol>
<symbol id="icon-angle-up" viewBox="0 0 21 32">
<path d="M19.197 21.143c0 0.143-0.072 0.304-0.178 0.41l-0.893 0.893c-0.107 0.107-0.25 0.178-0.41 0.178-0.143 0-0.304-0.072-0.41-0.178l-7.018-7.018-7.018 7.018c-0.107 0.107-0.267 0.178-0.41 0.178s-0.304-0.072-0.41-0.178l-0.893-0.893c-0.107-0.107-0.178-0.267-0.178-0.41s0.072-0.304 0.178-0.41l8.321-8.321c0.107-0.107 0.267-0.178 0.41-0.178s0.304 0.072 0.41 0.178l8.321 8.321c0.107 0.107 0.178 0.267 0.178 0.41z"></path>
</symbol>
<symbol id="icon-angle-down" viewBox="0 0 21 32">
<path d="M19.197 13.143c0 0.143-0.072 0.304-0.178 0.41l-8.321 8.321c-0.107 0.107-0.267 0.178-0.41 0.178s-0.304-0.072-0.41-0.178l-8.321-8.321c-0.107-0.107-0.178-0.267-0.178-0.41s0.072-0.304 0.178-0.41l0.893-0.893c0.107-0.107 0.25-0.178 0.41-0.178 0.143 0 0.304 0.072 0.41 0.178l7.018 7.018 7.018-7.018c0.107-0.107 0.267-0.178 0.41-0.178s0.304 0.072 0.41 0.178l0.893 0.893c0.107 0.107 0.178 0.267 0.178 0.41z"></path>
</symbol>
<symbol id="icon-visibility" viewBox="0 0 32 32">
<path d="M16 6c-6.667 0-12.36 4.147-14.667 10 2.307 5.853 8 10 14.667 10 6.673 0 12.36-4.147 14.667-10-2.307-5.853-7.993-10-14.667-10zM16 22.667c-3.68 0-6.667-2.987-6.667-6.667s2.987-6.667 6.667-6.667 6.667 2.987 6.667 6.667-2.987 6.667-6.667 6.667zM16 12c-2.207 0-4 1.793-4 4s1.793 4 4 4 4-1.793 4-4-1.793-4-4-4z"></path>
</symbol>
<symbol id="icon-visibility-off" viewBox="0 0 32 32">
<path d="M16 9.333c3.68 0 6.667 2.987 6.667 6.667 0 0.867-0.173 1.68-0.48 2.44l3.893 3.893c2.013-1.68 3.6-3.853 4.573-6.333-2.307-5.853-8-10-14.667-10-1.867 0-3.653 0.333-5.307 0.933l2.88 2.88c0.76-0.307 1.573-0.48 2.44-0.48zM2.667 5.693l3.653 3.653c-2.213 1.72-3.947 4.013-4.987 6.653 2.307 5.853 8 10 14.667 10 2.067 0 4.040-0.4 5.84-1.12l0.56 0.56 3.907 3.893 1.693-1.693-23.64-23.64-1.693 1.693zM10.040 13.067l2.067 2.067c-0.067 0.28-0.107 0.573-0.107 0.867 0 2.213 1.787 4 4 4 0.293 0 0.587-0.040 0.867-0.107l2.067 2.067c-0.893 0.44-1.88 0.707-2.933 0.707-3.68 0-6.667-2.987-6.667-6.667 0-1.053 0.267-2.040 0.707-2.933zM15.787 12.027l4.2 4.2 0.027-0.213c0-2.213-1.787-4-4-4l-0.227 0.013z"></path>
</symbol>
<symbol id="icon-elexa-logo" viewBox="0 0 65 32">
<path fill="#fff" style="fill: var(--color1, #fff)" d="M16.65 6.373c1.377 0 2.757 0 4.133 0 0 6.653 0 13.307 0 19.96-1.377 0-2.753 0-4.133 0 0-6.653 0-13.307 0-19.96z"></path>
<path fill="#fff" style="fill: var(--color1, #fff)" d="M1.88 6.907c4.17 0 8.337 0 12.503 0 0.003 1.157 0.003 2.31 0 3.467-2.657 0-5.313-0.003-7.97 0 0 1.51 0 3.023 0 4.533 2.037 0 4.070 0 6.107 0 0 1.11 0 2.223 0 3.333-2.037 0-4.070 0-6.107 0 0 1.543 0 3.083 0 4.627 2.657 0 5.313 0 7.97 0 0.003 1.157 0.003 2.31 0.003 3.467-4.17 0-8.34 0-12.507 0 0-6.477 0-12.95 0-19.427z"></path>
<path fill="#fff" style="fill: var(--color1, #fff)" d="M24.25 14.95c1.997-2.783 6.223-3.433 9.090-1.67 1.903 1.19 2.713 3.547 2.603 5.71-0.030 0.413-0.063 1.117-0.63 1.123-2.75 0.11-5.51 0.013-8.263 0.047 0.197 1.17 0.63 2.497 1.833 2.98 1.523 0.707 3.147-0.007 4.533-0.68 1.22-0.523 1.773 1.057 2.467 1.727-2.997 3.19-9.117 3.283-11.683-0.49-1.653-2.577-1.773-6.227 0.050-8.747zM28.077 15.77c-0.58 0.507-0.77 1.28-0.99 1.987 1.727 0.007 3.453 0.003 5.183 0-0.1-0.61-0.17-1.27-0.58-1.767-0.867-1.037-2.61-1.073-3.613-0.22z"></path>
<path fill="#fff" style="fill: var(--color1, #fff)" d="M51.923 14.427c2.15-1.823 5.203-2.64 7.947-1.893 2.080 0.583 3.46 2.667 3.493 4.78 0.070 3.003 0.010 6.013 0.030 9.020-0.863-0.020-1.737 0.073-2.59-0.090-0.637-0.203-0.717-0.97-0.997-1.48-1.71 1.627-4.347 2.297-6.537 1.3-2.15-0.92-2.657-4.14-0.943-5.713 1.907-1.713 4.62-1.947 7.063-2.070 0-1.073-0.12-2.62-1.453-2.81-1.473-0.41-2.65 0.793-4.033 0.957-1.107-0.030-1.48-1.217-1.98-2zM55.817 21.47c-0.813 0.487-0.777 2.040 0.247 2.253 1.22 0.317 2.457-0.22 3.31-1.087-0.007-0.647-0.010-1.293-0.010-1.94-1.2 0.117-2.487 0.13-3.547 0.773z"></path>
<path fill="#fff" style="fill: var(--color1, #fff)" d="M36.4 12.507c1.43 0.033 2.867-0.070 4.293 0.050 0.48-0.013 0.673 0.493 0.92 0.81 0.737 1.237 1.487 2.463 2.213 3.707 0.64-1.217 1.337-2.403 2.017-3.597 0.263-0.423 0.55-0.993 1.143-0.947 1.26-0.063 2.523-0.003 3.787-0.023-1.483 2.163-2.97 4.33-4.453 6.493 1.547 2.443 3.093 4.887 4.64 7.33-1.557-0.117-3.203 0.277-4.7-0.24-1.147-1.423-1.897-3.13-2.853-4.687-0.927 1.59-1.697 3.32-2.903 4.717-1.37 0.46-2.867 0.1-4.287 0.213 1.543-2.383 3.093-4.763 4.637-7.147-1.487-2.227-2.97-4.453-4.453-6.68z"></path>
</symbol>
<symbol id="icon-add" viewBox="0 0 32 32">
<path d="M16 0c-8.837 0-16 7.163-16 16s7.163 16 16 16c8.837 0 16-7.163 16-16v0c0-0 0-0 0-0.001 0-8.836-7.163-15.999-15.999-15.999-0 0-0 0-0.001 0h0zM16 29.957c-7.709 0-13.957-6.249-13.957-13.957s6.249-13.957 13.957-13.957c7.709 0 13.957 6.249 13.957 13.957v0c-0.009 7.705-6.253 13.948-13.957 13.957h-0.001zM17.021 8.622h-2.043v6.357h-6.357v2.042h6.357v6.357h2.043v-6.357h6.357v-2.043h-6.357z"></path>
</symbol>
<symbol id="icon-delete" viewBox="0 0 28 32">
<path d="M9.767 2.814v-2.044c0-0.425 0.345-0.77 0.77-0.77v0h7.333c0.422 0.001 0.764 0.343 0.764 0.765 0 0.001 0 0.003 0 0.004v-0 2.044h9.014c0.423 0 0.767 0.343 0.767 0.767s-0.343 0.767-0.767 0.767v0h-2.086v23.286c-0.022 2.417-1.987 4.368-4.407 4.368-0.003 0-0.006 0-0.008 0h-13.892c-0.002 0-0.005 0-0.008 0-2.42 0-4.385-1.951-4.407-4.365v-23.289h-2.081c-0.423 0-0.767-0.343-0.767-0.767s0.343-0.767 0.767-0.767v0zM11.3 1.533v1.28h5.801v-1.28zM24.029 4.346h-19.656v23.286c0.016 1.569 1.291 2.834 2.862 2.834 0.007 0 0.014-0 0.020-0h13.892c0.006 0 0.013 0 0.019 0 1.571 0 2.846-1.266 2.862-2.833v-0.002z"></path>
<path d="M10.115 8.457c0-0.423 0.343-0.767 0.767-0.767s0.767 0.343 0.767 0.767v0 18.965c0 0.423-0.343 0.767-0.767 0.767s-0.767-0.343-0.767-0.767v0z"></path>
<path d="M16.753 8.457c0-0.423 0.343-0.767 0.767-0.767s0.767 0.343 0.767 0.767v0 18.965c0 0.423-0.343 0.767-0.767 0.767s-0.767-0.343-0.767-0.767v0z"></path>
</symbol>
<symbol id="icon-product" viewBox="0 0 33 32">
<path stroke-width="0.3713" stroke-miterlimit="4" stroke-linecap="butt" stroke-linejoin="miter" d="M32.385 6.629c-0.045-0.226-0.183-0.413-0.372-0.523l-0.004-0.002-10.924-5.819c-0.101-0.049-0.219-0.078-0.344-0.078-0.217 0-0.413 0.086-0.557 0.227l0-0-3.902 4.206-3.904-4.204c-0.144-0.14-0.34-0.226-0.557-0.226-0.125 0-0.243 0.029-0.349 0.080l0.005-0.002-10.885 5.816c-0.193 0.112-0.331 0.299-0.375 0.52l-0.001 0.005c-0.004 0.034-0.007 0.073-0.007 0.112 0 0.195 0.059 0.377 0.159 0.528l-0.002-0.003 3.678 4.279-3.678 4.28c-0.108 0.119-0.175 0.278-0.175 0.452 0 0.066 0.010 0.13 0.027 0.191l-0.001-0.005c0.045 0.226 0.183 0.413 0.372 0.523l0.004 0.002 3.716 2.027v5.855c0.008 0.282 0.154 0.528 0.372 0.674l0.003 0.002 11.259 6.155c0.025 0.024 0.058 0.038 0.095 0.038 0.006 0 0.011-0 0.017-0.001l-0.001 0c0.037 0 0.037 0 0.074 0.037 0.074 0 0.111 0.037 0.188 0.037 0.009 0.001 0.020 0.001 0.031 0.001 0.057 0 0.111-0.014 0.159-0.039l-0.002 0.001c0.037 0 0.037 0 0.074-0.037 0.037 0 0.074-0.037 0.111-0.037l11.264-6.155c0.227-0.141 0.375-0.389 0.375-0.672 0-0.002 0-0.003 0-0.005v0-5.855l3.717-2.027c0.192-0.112 0.331-0.299 0.375-0.52l0.001-0.005c0.004-0.035 0.007-0.075 0.007-0.116 0-0.194-0.058-0.375-0.158-0.526l0.002 0.004-3.68-4.279 3.678-4.28c0.075-0.153 0.118-0.333 0.118-0.523 0-0.040-0.002-0.080-0.006-0.119l0 0.005zM2.095 6.967l9.571-5.105 3.379 3.641-9.835 5.105zM5.21 17.814l-3.115-1.727 3.115-3.602 9.797 5.366-3.602 3.342-5.857-3.229c-0.097-0.062-0.209-0.113-0.328-0.148l-0.009-0.002zM15.533 29.713l-9.76-5.329v-4.542l5.367 2.928c0.087 0.049 0.191 0.079 0.302 0.079 0.026 0 0.052-0.002 0.077-0.005l-0.003 0c0.199-0.005 0.381-0.075 0.527-0.189l-0.002 0.002 3.528-3.265v10.323zM16.283 16.838l-9.647-5.255 9.647-4.992 9.646 4.992zM26.792 24.383l-9.759 5.329v-10.323l3.528 3.265c0.125 0.117 0.294 0.189 0.479 0.189 0.016 0 0.032-0.001 0.048-0.002l-0.002 0c0.137-0.007 0.265-0.034 0.385-0.077l-0.009 0.003 5.33-2.928zM30.471 16.088l-9.308 5.104-3.602-3.342 9.795-5.366zM27.355 10.607l-9.834-5.067 3.379-3.641 9.57 5.069z"></path>
</symbol>
<symbol id="icon-settings" viewBox="0 0 31 32">
<path d="M13.155 0c-1.176 0.006-2.127 0.958-2.133 2.133v1.812c-1.61 0.593-2.995 1.442-4.178 2.51l0.011-0.010-1.622-0.9c-0.297-0.165-0.652-0.263-1.029-0.263-0.799 0-1.497 0.437-1.865 1.086l-0.006 0.011-2.067 3.733c-0.168 0.298-0.266 0.655-0.266 1.034 0 0.796 0.434 1.491 1.078 1.86l0.010 0.006 1.611 0.889c-0.134 0.63-0.211 1.353-0.211 2.094s0.077 1.465 0.223 2.163l-0.012-0.068-1.611 0.9c-0.655 0.375-1.089 1.070-1.089 1.866 0 0.38 0.099 0.736 0.272 1.045l-0.006-0.011 2.067 3.733c0.374 0.659 1.072 1.096 1.871 1.096 0.377 0 0.732-0.097 1.040-0.268l-0.011 0.006 1.622-0.9c1.172 1.054 2.557 1.899 4.079 2.46l0.088 0.028v1.822c0.006 1.176 0.958 2.127 2.133 2.133h4.267c1.176-0.006 2.127-0.958 2.133-2.133v-1.823c1.61-0.59 2.995-1.435 4.178-2.499l-0.012 0.010 1.622 0.9c0.297 0.166 0.652 0.263 1.029 0.263 0.799 0 1.497-0.437 1.865-1.086l0.006-0.011 2.067-3.733c0.168-0.298 0.266-0.655 0.266-1.034 0-0.796-0.434-1.49-1.078-1.86l-0.010-0.006-1.611-0.9c0.134-0.63 0.211-1.353 0.211-2.094s-0.077-1.465-0.223-2.163l0.012 0.068 1.611-0.889c0.655-0.375 1.088-1.069 1.088-1.865 0-0.38-0.099-0.736-0.272-1.045l0.006 0.011-2.067-3.733c-0.374-0.659-1.072-1.096-1.871-1.096-0.377 0-0.732 0.097-1.040 0.269l0.011-0.006-1.622 0.9c-1.172-1.058-2.557-1.907-4.079-2.471l-0.088-0.029v-1.811c-0.006-1.176-0.958-2.127-2.133-2.133h-4.267zM13.155 1.422h4.267c0.005-0 0.011-0 0.017-0 0.384 0 0.694 0.311 0.694 0.694 0 0.006-0 0.012-0 0.018l0-0.001v2.311c0.007 0.315 0.212 0.58 0.495 0.676l0.005 0.002c1.775 0.557 3.299 1.478 4.548 2.681l-0.003-0.003c0.13 0.12 0.304 0.194 0.496 0.194 0.123 0 0.24-0.031 0.342-0.085l-0.004 0.002 2.022-1.122c0.101-0.060 0.222-0.095 0.351-0.095 0.266 0 0.497 0.15 0.614 0.369l0.002 0.004 2.067 3.733c0.063 0.102 0.1 0.225 0.1 0.357 0 0.263-0.147 0.491-0.363 0.608l-0.004 0.002-2.022 1.122c-0.221 0.129-0.368 0.364-0.368 0.634 0 0.047 0.004 0.092 0.013 0.137l-0.001-0.005c0.155 0.703 0.244 1.511 0.244 2.339s-0.089 1.636-0.258 2.413l0.014-0.075c-0.009 0.043-0.014 0.092-0.014 0.142 0 0.271 0.147 0.507 0.366 0.634l0.004 0.002 2.022 1.122c0.22 0.118 0.366 0.347 0.366 0.609 0 0.132-0.037 0.256-0.102 0.36l0.002-0.003-2.067 3.733c-0.119 0.223-0.35 0.373-0.616 0.373-0.129 0-0.251-0.035-0.354-0.097l0.003 0.002-2.022-1.122c-0.1-0.055-0.219-0.087-0.345-0.087-0.188 0-0.359 0.071-0.489 0.187l0.001-0.001c-1.245 1.2-2.769 2.121-4.464 2.656l-0.081 0.022c-0.291 0.099-0.498 0.37-0.5 0.689v2.311c0 0.005 0 0.011 0 0.017 0 0.384-0.311 0.694-0.694 0.694-0.006 0-0.012-0-0.018-0l0.001 0h-4.267c-0.005 0-0.011 0-0.017 0-0.383 0-0.694-0.311-0.694-0.694 0-0.006 0-0.012 0-0.018l-0 0.001v-2.311c-0.002-0.319-0.209-0.589-0.495-0.687l-0.005-0.002c-1.775-0.557-3.299-1.477-4.548-2.681l0.004 0.003c-0.129-0.116-0.3-0.187-0.488-0.187-0.127 0-0.246 0.032-0.349 0.089l0.004-0.002-2.022 1.122c-0.101 0.060-0.222 0.095-0.351 0.095-0.266 0-0.497-0.15-0.614-0.369l-0.002-0.004-2.067-3.733c-0.063-0.102-0.1-0.225-0.1-0.357 0-0.263 0.147-0.491 0.363-0.608l0.004-0.002 2.022-1.122c0.222-0.128 0.369-0.365 0.369-0.636 0-0.050-0.005-0.099-0.015-0.147l0.001 0.005c-0.155-0.703-0.244-1.511-0.244-2.339s0.089-1.636 0.258-2.413l-0.014 0.075c0.008-0.040 0.012-0.085 0.012-0.132 0-0.27-0.146-0.506-0.364-0.633l-0.003-0.002-2.022-1.123c-0.22-0.118-0.367-0.347-0.367-0.609 0-0.132 0.037-0.256 0.102-0.36l-0.002 0.003 2.066-3.733c0.119-0.223 0.35-0.373 0.616-0.373 0.129 0 0.251 0.035 0.354 0.097l-0.003-0.002 2.022 1.122c0.098 0.052 0.214 0.083 0.338 0.083 0.191 0 0.366-0.074 0.496-0.194l-0 0c1.245-1.2 2.769-2.121 4.464-2.656l0.081-0.022c0.288-0.098 0.493-0.363 0.5-0.677v-2.312c-0-0.005-0-0.011-0-0.017 0-0.383 0.311-0.694 0.694-0.694 0.006 0 0.012 0 0.018 0l-0.001-0zM15.289 8.889c-3.927 0-7.111 3.184-7.111 7.111s3.184 7.111 7.111 7.111c3.927 0 7.111-3.184 7.111-7.111v0c-0.006-3.925-3.186-7.105-7.111-7.111h-0.001zM15.289 10.311c3.142 0 5.689 2.547 5.689 5.689s-2.547 5.689-5.689 5.689c-3.142 0-5.689-2.547-5.689-5.689v0c0-0.003 0-0.007 0-0.011 0-3.136 2.542-5.678 5.678-5.678 0.004 0 0.008 0 0.011 0h-0.001z"></path>
</symbol>
<symbol id="icon-home" viewBox="0 0 32 32">
<path stroke-width="0.5415" stroke-miterlimit="4" stroke-linecap="butt" stroke-linejoin="miter" d="M16.37 0.479c-0.1-0.094-0.234-0.152-0.383-0.152s-0.283 0.058-0.383 0.153l-15.163 15.163c-0.098 0.098-0.159 0.233-0.159 0.383 0 0.299 0.242 0.541 0.541 0.542h3.899v14.622c0 0.299 0.242 0.542 0.542 0.542v0h21.445c0.299 0 0.542-0.242 0.542-0.542v0-14.622h3.899c0.299-0 0.541-0.242 0.541-0.542 0-0.149-0.061-0.285-0.159-0.383v0zM26.709 15.483c-0.299 0-0.542 0.242-0.542 0.542v0 14.622h-20.362v-14.622c0-0.299-0.242-0.542-0.542-0.542v0h-3.133l13.855-13.856 13.856 13.856z"></path>
</symbol>
<symbol id="icon-image_upload" viewBox="0 0 42 32">
<path stroke-width="1.0323" stroke-miterlimit="10" stroke-linecap="round" stroke-linejoin="round" d="M10.406 16.099l2.529-3.163 1.825 2.281c0.955-0.832 1.556-2.050 1.556-3.409 0-2.492-2.020-4.513-4.513-4.513s-4.513 2.020-4.513 4.513c0 1.993 1.292 3.684 3.084 4.282l0.032 0.009z"></path>
<path stroke-width="1.0323" stroke-miterlimit="10" stroke-linecap="round" stroke-linejoin="round" d="M15.195 24.227h-11.291v-20.325h29.357v12.138c0.237-0.025 0.512-0.040 0.79-0.040 0.006 0 0.011 0 0.017 0h-0.001c0.926 0.001 1.813 0.166 2.634 0.467l-0.053-0.017v-15.934h-36.131v27.098h26.853c-0.574-0.973-0.943-2.13-1.020-3.366l-0.001-0.022h-11.154z"></path>
<path stroke-width="1.0323" stroke-miterlimit="10" stroke-linecap="round" stroke-linejoin="round" d="M3.903 3.903v20.325l9.033-11.291 5.082 6.352 6.209-10.868 5.213 9.122c1.061-0.806 2.365-1.346 3.786-1.5l0.034-0.003v-12.137z"></path>
<path stroke-width="1.0323" stroke-miterlimit="10" stroke-linecap="round" stroke-linejoin="round" d="M26.324 23.743c0.001-2.53 1.218-4.776 3.098-6.185l0.020-0.014-5.213-9.123-6.21 10.866-5.082-6.352-9.033 11.291h22.445c-0.010-0.162-0.024-0.323-0.024-0.484z"></path>
<path stroke-width="1.0323" stroke-miterlimit="10" stroke-linecap="round" stroke-linejoin="round" d="M41.808 23.742c0 4.276-3.466 7.742-7.742 7.742s-7.742-3.466-7.742-7.742c0-4.276 3.466-7.742 7.742-7.742s7.742 3.466 7.742 7.742z"></path>
<path stroke-width="1.0323" stroke-miterlimit="10" stroke-linecap="round" stroke-linejoin="round" d="M37.937 21.42l-4.645 4.645z"></path>
</symbol>
<symbol id="icon-log_out" viewBox="0 0 26 32">
<path d="M2.667 0c-1.47 0.008-2.659 1.197-2.667 2.666v26.667c0.008 1.47 1.197 2.659 2.666 2.667h7.112c0.491 0 0.889-0.398 0.889-0.889s-0.398-0.889-0.889-0.889v0h-7.111c-0.006 0-0.014 0-0.021 0-0.479 0-0.868-0.389-0.868-0.868 0-0.007 0-0.015 0-0.022l-0 0.001v-26.667c-0-0.006-0-0.014-0-0.021 0-0.479 0.389-0.868 0.868-0.868 0.007 0 0.015 0 0.022 0l-0.001-0h7.111c0.491 0 0.889-0.398 0.889-0.889s-0.398-0.889-0.889-0.889v0zM18.542 7.986c-0.441 0.057-0.779 0.43-0.779 0.882 0 0.234 0.090 0.446 0.237 0.605l-0-0.001 4.931 5.639h-15.82q-0.042 0-0.083 0c-0.473 0.023-0.848 0.412-0.848 0.889 0 0.491 0.398 0.89 0.89 0.89 0.015 0 0.029-0 0.044-0.001l-0.002 0h15.82l-4.931 5.625c-0.139 0.156-0.224 0.363-0.224 0.59 0 0.492 0.399 0.89 0.89 0.89 0.265 0 0.503-0.116 0.666-0.299l0.001-0.001 6.222-7.111c0.139-0.156 0.224-0.363 0.224-0.59s-0.085-0.434-0.225-0.591l-6.221-7.11c-0.164-0.192-0.406-0.313-0.677-0.313-0.040 0-0.080 0.003-0.119 0.008l0.005-0z"></path>
</symbol>
<symbol id="icon-category" viewBox="0 0 34 32">
<path stroke-width="0.5146" stroke-miterlimit="4" stroke-linecap="butt" stroke-linejoin="miter" d="M2.174 0.257c-0.004-0-0.009-0-0.013-0-1.040 0-1.885 0.834-1.904 1.87l-0 0.002v5.106c0.019 1.037 0.864 1.871 1.904 1.871 0.005 0 0.009-0 0.014-0h5.014c0.004 0 0.009 0 0.013 0 1.040 0 1.885-0.834 1.904-1.87l0-0.002v-5.105c-0.018-1.038-0.864-1.872-1.904-1.872-0.005 0-0.009 0-0.014 0h-5.014zM12.782 0.26c-0.003-0-0.008-0-0.012-0-1.040 0-1.885 0.834-1.904 1.87l-0 0.002v5.103c0.019 1.037 0.864 1.871 1.904 1.871 0.004 0 0.008 0 0.012-0h18.612c0.004 0 0.009 0 0.013 0 1.040 0 1.885-0.834 1.904-1.87l0-0.002v-5.102c-0.018-1.038-0.864-1.872-1.904-1.872-0.005 0-0.009 0-0.014 0h0.001zM2.174 1.544h5.015c0.011-0.001 0.023-0.001 0.036-0.001 0.325 0 0.59 0.261 0.594 0.586v5.106c-0.005 0.324-0.269 0.585-0.594 0.585-0.013 0-0.025-0-0.038-0.001l0.002 0h-5.015c-0.011 0.001-0.023 0.001-0.036 0.001-0.325 0-0.59-0.261-0.594-0.586v-5.105c0.005-0.325 0.269-0.586 0.594-0.586 0.013 0 0.025 0 0.038 0.001l-0.002-0zM12.782 1.547h18.612c0.011-0.001 0.023-0.001 0.036-0.001 0.325 0 0.59 0.261 0.594 0.586v5.103c-0.005 0.324-0.269 0.585-0.594 0.585-0.013 0-0.025-0-0.038-0.001l0.002 0h-18.612c-0.010 0.001-0.022 0.001-0.035 0.001-0.325 0-0.589-0.261-0.594-0.585v-5.103c0.005-0.325 0.269-0.586 0.594-0.586 0.013 0 0.025 0 0.038 0.001l-0.002-0zM2.174 11.575c-0.004-0-0.009-0-0.013-0-1.040 0-1.885 0.834-1.904 1.87l-0 0.002v5.106c0.017 1.038 0.863 1.874 1.904 1.874 0.005 0 0.009-0 0.014-0h5.014c0.004 0 0.009 0 0.013 0 1.040 0 1.885-0.834 1.904-1.87l0-0.002v-5.107c-0.018-1.038-0.863-1.873-1.904-1.873-0.005 0-0.009 0-0.014 0h-5.014zM12.782 11.578c-0.003-0-0.008-0-0.012-0-1.040 0-1.886 0.835-1.904 1.871l-0 0.002v5.103c0.018 1.038 0.863 1.873 1.904 1.873 0.004 0 0.008 0 0.012-0h18.612c0.004 0 0.009 0 0.013 0 1.040 0 1.885-0.834 1.904-1.87l0-0.002v-5.104c-0.018-1.037-0.864-1.872-1.904-1.872-0.005 0-0.009 0-0.014 0h0.001zM2.174 12.861h5.015c0.011-0.001 0.023-0.001 0.036-0.001 0.325 0 0.59 0.261 0.594 0.586v5.106c-0.003 0.326-0.268 0.588-0.594 0.588-0.013 0-0.025-0-0.038-0.001l0.002 0h-5.015c-0.011 0.001-0.023 0.001-0.036 0.001-0.325 0-0.59-0.261-0.594-0.586v-5.107c0.004-0.325 0.269-0.587 0.594-0.587 0.013 0 0.025 0 0.038 0.001l-0.002-0zM12.782 12.864h18.612c0.011-0.001 0.023-0.001 0.036-0.001 0.325 0 0.59 0.261 0.594 0.586v5.103c-0.003 0.326-0.268 0.588-0.594 0.588-0.013 0-0.025-0-0.038-0.001l0.002 0h-18.612c-0.010 0.001-0.022 0.001-0.035 0.001-0.326 0-0.59-0.262-0.594-0.587v-5.103c0.005-0.325 0.269-0.586 0.594-0.586 0.012 0 0.024 0 0.036 0.001l-0.002-0zM2.174 22.896c-0.004-0-0.009-0-0.013-0-1.040 0-1.885 0.834-1.904 1.87l-0 0.002v5.106c0.018 1.038 0.864 1.872 1.904 1.872 0.005 0 0.009-0 0.014-0h5.014c0.004 0 0.009 0 0.013 0 1.040 0 1.885-0.834 1.904-1.87l0-0.002v-5.107c-0.019-1.037-0.864-1.871-1.904-1.871-0.005 0-0.009 0-0.014 0h-5.014zM12.782 22.899c-0.003-0-0.008-0-0.012-0-1.040 0-1.885 0.833-1.904 1.868l-0 0.002v5.103c0.018 1.038 0.864 1.872 1.904 1.872 0.005 0 0.009-0 0.014-0h18.612c0.004 0 0.009 0 0.013 0 1.040 0 1.885-0.834 1.904-1.87l0-0.002v-5.103c-0.017-1.038-0.863-1.873-1.904-1.873-0.005 0-0.010 0-0.015 0h-18.611zM2.174 24.182h5.015c0.011-0.001 0.023-0.001 0.036-0.001 0.325 0 0.59 0.261 0.594 0.586v5.106c-0.005 0.325-0.269 0.586-0.594 0.586-0.013 0-0.025-0-0.038-0.001l0.002 0h-5.015c-0.011 0.001-0.023 0.001-0.036 0.001-0.325 0-0.59-0.261-0.594-0.586v-5.107c0.005-0.324 0.269-0.585 0.594-0.585 0.013 0 0.025 0 0.038 0.001l-0.002-0zM12.782 24.185h18.612c0.011-0.001 0.023-0.001 0.036-0.001 0.325 0 0.59 0.261 0.594 0.586v5.103c-0.005 0.325-0.269 0.586-0.594 0.586-0.013 0-0.025-0-0.038-0.001l0.002 0h-18.612c-0.010 0.001-0.022 0.001-0.034 0.001-0.326 0-0.591-0.262-0.594-0.587v-5.103c0.004-0.325 0.268-0.588 0.594-0.588 0.012 0 0.024 0 0.036 0.001l-0.002-0z"></path>
</symbol>
<symbol id="icon-check" viewBox="0 0 24 24">
<path d="M9 16.172l10.594-10.594 1.406 1.406-12 12-5.578-5.578 1.406-1.406z"></path>
</symbol>
<symbol id="icon-fullscreen" viewBox="0 0 24 24">
<path d="M14.016 5.016h4.969v4.969h-1.969v-3h-3v-1.969zM17.016 17.016v-3h1.969v4.969h-4.969v-1.969h3zM5.016 9.984v-4.969h4.969v1.969h-3v3h-1.969zM6.984 14.016v3h3v1.969h-4.969v-4.969h1.969z"></path>
</symbol>
<symbol id="icon-fullscreen_exit" viewBox="0 0 24 24">
<path d="M15.984 8.016h3v1.969h-4.969v-4.969h1.969v3zM14.016 18.984v-4.969h4.969v1.969h-3v3h-1.969zM8.016 8.016v-3h1.969v4.969h-4.969v-1.969h3zM5.016 15.984v-1.969h4.969v4.969h-1.969v-3h-3z"></path>
</symbol>
<symbol id="icon-check_circle" viewBox="0 0 24 24">
<path d="M9.984 17.016l9-9-1.406-1.453-7.594 7.594-3.563-3.563-1.406 1.406zM12 2.016q4.125 0 7.055 2.93t2.93 7.055-2.93 7.055-7.055 2.93-7.055-2.93-2.93-7.055 2.93-7.055 7.055-2.93z"></path>
</symbol>
<symbol id="icon-list" viewBox="0 0 24 24">
<path d="M8 7h13c0.552 0 1-0.448 1-1s-0.448-1-1-1h-13c-0.552 0-1 0.448-1 1s0.448 1 1 1zM8 13h13c0.552 0 1-0.448 1-1s-0.448-1-1-1h-13c-0.552 0-1 0.448-1 1s0.448 1 1 1zM8 19h13c0.552 0 1-0.448 1-1s-0.448-1-1-1h-13c-0.552 0-1 0.448-1 1s0.448 1 1 1zM3 7c0.552 0 1-0.448 1-1s-0.448-1-1-1-1 0.448-1 1 0.448 1 1 1zM3 13c0.552 0 1-0.448 1-1s-0.448-1-1-1-1 0.448-1 1 0.448 1 1 1zM3 19c0.552 0 1-0.448 1-1s-0.448-1-1-1-1 0.448-1 1 0.448 1 1 1z"></path>
</symbol>
<symbol id="icon-profile" viewBox="0 0 24 24">
<path d="M21 21v-2c0-1.38-0.561-2.632-1.464-3.536s-2.156-1.464-3.536-1.464h-8c-1.38 0-2.632 0.561-3.536 1.464s-1.464 2.156-1.464 3.536v2c0 0.552 0.448 1 1 1s1-0.448 1-1v-2c0-0.829 0.335-1.577 0.879-2.121s1.292-0.879 2.121-0.879h8c0.829 0 1.577 0.335 2.121 0.879s0.879 1.292 0.879 2.121v2c0 0.552 0.448 1 1 1s1-0.448 1-1zM17 7c0-1.38-0.561-2.632-1.464-3.536s-2.156-1.464-3.536-1.464-2.632 0.561-3.536 1.464-1.464 2.156-1.464 3.536 0.561 2.632 1.464 3.536 2.156 1.464 3.536 1.464 2.632-0.561 3.536-1.464 1.464-2.156 1.464-3.536zM15 7c0 0.829-0.335 1.577-0.879 2.121s-1.292 0.879-2.121 0.879-1.577-0.335-2.121-0.879-0.879-1.292-0.879-2.121 0.335-1.577 0.879-2.121 1.292-0.879 2.121-0.879 1.577 0.335 2.121 0.879 0.879 1.292 0.879 2.121z"></path>
</symbol>
</defs>
</svg>
