<svg xmlns="http://www.w3.org/2000/svg" xmlns:xlink="http://www.w3.org/1999/xlink" width="520.024" height="391.51" viewBox="0 0 520.024 391.51"><defs><style>.a{fill:url(#a);}.b{fill:url(#b);}.ab,.c,.n,.o,.t{fill:none;}.c{stroke:#1dceb4;stroke-width:1.093px;}.ab,.c,.n,.o{stroke-linecap:round;}.ab,.c,.t{stroke-miterlimit:10;}.d{fill:url(#c);}.e{fill:url(#d);}.f{fill:url(#e);}.g{fill:url(#f);}.h{fill:url(#i);}.i{fill:#0064ff;}.j{fill:#fff;}.k{fill:#c1c7d3;}.l{fill:#a9b2bf;}.m{fill:#91b6e0;}.n,.o{stroke:#01004c;stroke-linejoin:round;}.n{stroke-width:2.265px;}.o{stroke-width:1.133px;}.p{fill:#01004c;}.q{fill:#62a5e7;}.r{fill:#f98091;}.s{fill:#f995a6;}.t{stroke:#f98091;stroke-width:0.85px;}.u{fill:#e4e9ff;}.v{fill:#fcd98e;}.w{fill:#e2697d;}.x{fill:#33337c;}.y{fill:#282766;}.z{fill:#ffadb7;}.aa{opacity:0.51;fill:url(#j);}.aa,.ac,.ad{mix-blend-mode:overlay;isolation:isolate;}.ab{stroke:#ef8998;stroke-width:0.566px;}.ac{opacity:0.75;fill:url(#k);}.ad{opacity:0.5;fill:url(#l);}</style><linearGradient id="a" x1="0.5" y1="1" x2="0.5" gradientUnits="objectBoundingBox"><stop offset="0" stop-color="#f5f6fa"/><stop offset="0.739" stop-color="#cbe4f7"/><stop offset="1" stop-color="#cbe4f7"/></linearGradient><linearGradient id="b" x1="0.915" y1="0.898" x2="0.225" y2="0.011" gradientUnits="objectBoundingBox"><stop offset="0" stop-color="#148275"/><stop offset="0.094" stop-color="#148a7b"/><stop offset="0.451" stop-color="#14a691"/><stop offset="0.765" stop-color="#14b79f"/><stop offset="1" stop-color="#14bda4"/></linearGradient><linearGradient id="c" x1="0.645" y1="1.012" x2="0.391" y2="-0.02" xlink:href="#b"/><linearGradient id="d" x1="0.5" y1="1" x2="0.5" y2="0" xlink:href="#b"/><linearGradient id="e" x1="0.299" y1="1.022" x2="0.609" y2="-0.015" xlink:href="#b"/><linearGradient id="f" x1="0.58" y1="1.075" x2="0.389" y2="-0.018" xlink:href="#b"/><linearGradient id="i" x1="0.35" y1="0.98" x2="0.579" y2="-0.007" xlink:href="#b"/><radialGradient id="j" cx="0.5" cy="0.5" r="0.5" gradientTransform="translate(0)" gradientUnits="objectBoundingBox"><stop offset="0"/><stop offset="1" stop-opacity="0"/></radialGradient><linearGradient id="k" x1="0.107" y1="0.57" x2="0.9" y2="0.319" gradientUnits="objectBoundingBox"><stop offset="0.209" stop-opacity="0"/><stop offset="1"/></linearGradient><linearGradient id="l" x1="0.138" y1="0.834" x2="1.177" y2="0.144" gradientUnits="objectBoundingBox"><stop offset="0.053" stop-opacity="0"/><stop offset="1"/></linearGradient></defs><g transform="translate(-114.459 -49.875)"><path class="a" d="M191.638,440.2c23.421-104.7-48.274-152.652-34.383-218.074s53.772-107.991,123.45-89.171,98.358,75.28,186.184,52.875,132.637-5.377,136.222,46.155S588.366,394.343,557.2,440.2Z"/><path class="b" d="M182.572,352.072c-1.792-13.667,3.585-21.957-12.546-29.126s-24.646-15.459-20.165-28.23,28.006-13.443,36.072-2.689,13.667,23.3,12.771,41.449Z"/><path class="c" d="M161.885,300.242s27.782-.3,28.828,38.835"/><path class="d" d="M196.687,328.995s-1.322-29.518-15.907-36.968-20.164-11.2-17.7-20.612,22.629-8.738,31.143,1.792,14.339,22.629,14.339,41.9Z"/><path class="c" d="M170.1,272.759s27.633.394,32.562,45.53"/><path class="e" d="M206.1,314.432a235.8,235.8,0,0,0-10.082-35.847c-6.945-18.6-6.273-47.275,6.722-49.739s8.962,21.508,15.907,34.5,12.1,23.749,6.722,40.105Z"/><path class="c" d="M202.662,234.522c-5.228,28.379,11.352,30.918,12.995,71.546"/><path class="f" d="M224.918,301.549s-5.938-19.505-.561-37.254,23.525-23.351,29.575-15.4-10.306,21.4-4.817,41.113Z"/><path class="c" d="M246.874,251.7s-19.268,15.832-11.2,41.523"/><path class="g" d="M451.654,347.741c-3.734-6.124-20.164-14.823-18.222-24.944s20.313-11.352,27.782,2.091a59.218,59.218,0,0,1,7.617,25.392Z"/><path class="c" d="M442.916,322.208s15.534,3.651,15.609,24.039"/><path class="e" d="M467.188,347.143c-4.63-9.41-10.007-30.321-4.331-43.166s22.852-13.742,21.807,1.045-4.332,31.068,12.248,45.258Z"/><path class="c" d="M474.059,300.02s-10.978,10.006,2.24,44.584"/><path class="e" d="M491.385,353.416c-7.617-9.858-15.139-19.417-12.723-34.2S488.1,299.5,499.9,290.982s23-17.028,26.139-10.008-19.119,22.7-21.135,36.147,11.128,37.64,11.128,37.64Z"/><path class="c" d="M518.869,285.981s-45.69,21.058-23.405,64.3"/><path class="h" d="M507.069,352.52c-2.091-12.248-7.986-33.756,7.358-46.6s37.451-2.24,34.613,8.365-19.606,7.749-23.747,20.893a34.443,34.443,0,0,0,1.45,24.106Z"/><path class="c" d="M541.946,311.52s-38.681-5.154-27.519,36.519"/><path class="i" d="M171.146,440.2H548.891s42.569-85.587-64.974-95.594-87.379-61.09-183.719-66.019S157.7,352.67,171.146,440.2Z"/><path class="i" d="M454.831,440.2c-12.845-22.106-16.131-53.174,23.749-68.111s36.3-61.747,100.523-55.519,32.562,105.108,23,123.63Z"/><path class="j" d="M458.525,242.438H388.249a2.017,2.017,0,0,1-2.017-2.016h0a2.017,2.017,0,0,1,2.017-2.017h70.276Z"/><path class="k" d="M477.942,185.828V238.4h13.443l10.391-50.8a1.482,1.482,0,0,0-1.452-1.779Z"/><path class="l" d="M0,0H32.86a0,0,0,0,1,0,0V1.96a2.072,2.072,0,0,1-2.072,2.072H0a0,0,0,0,1,0,0V0A0,0,0,0,1,0,0Z" transform="translate(458.525 238.405)"/><path class="j" d="M424.584,185.829h74.374L488.2,238.4H411.878l10.363-50.664A2.392,2.392,0,0,1,424.584,185.829Z"/><path class="m" d="M415.016,234.367l9.224-45.092a1.477,1.477,0,0,1,1.447-1.181h68.686a1.477,1.477,0,0,1,1.447,1.773L486.6,234.959a1.478,1.478,0,0,1-1.447,1.181H416.463A1.477,1.477,0,0,1,415.016,234.367Z"/><path class="j" d="M452.568,230.506l.264-2.49a6.023,6.023,0,0,1-5.138-2.33,9.155,9.155,0,0,1-1.465-5.438q0-.336.017-.689l3.62-.953q-.018.423-.018.812.018.848.089,1.536a7.635,7.635,0,0,0,.468,1.969,3.04,3.04,0,0,0,1.121,1.465,3.3,3.3,0,0,0,1.907.521,3.556,3.556,0,0,0,2.56-.892,4.048,4.048,0,0,0,1.112-2.622,6.624,6.624,0,0,0,.036-.671,5.786,5.786,0,0,0-.053-.776,6.169,6.169,0,0,0-.292-1.192,4.676,4.676,0,0,0-.6-1.086,12.012,12.012,0,0,0-.75-.962q-.336-.381-.954-1.016l-4.467-4.414a7.773,7.773,0,0,1-1.854-2.826,7.089,7.089,0,0,1-.371-2.383,11.076,11.076,0,0,1,.071-1.219,7.247,7.247,0,0,1,2.26-4.829,7.67,7.67,0,0,1,5.014-1.88l.248-2.454h1.236l-.248,2.472a5.43,5.43,0,0,1,4.291,2.03,8.872,8.872,0,0,1,1.289,5.226v.283l-3.443.918c.012-.271.017-.535.017-.794a11.76,11.76,0,0,0-.07-1.36,6.439,6.439,0,0,0-.442-1.73,2.307,2.307,0,0,0-1.059-1.2,3.1,3.1,0,0,0-1.5-.336,3.3,3.3,0,0,0-.335.018q-3.373.2-3.691,3.267a6.209,6.209,0,0,0-.035.635,4.017,4.017,0,0,0,.265,1.519,5.967,5.967,0,0,0,1.289,1.854l4.5,4.4a12.914,12.914,0,0,1,2.684,3.725,8.049,8.049,0,0,1,.724,3.443c0,.33-.018.671-.053,1.025a7.649,7.649,0,0,1-2.145,4.767,7.43,7.43,0,0,1-4.582,2.119l-.283,2.542Z"/><line class="n" x1="9.525" y2="191.188" transform="translate(379.695 249.01)"/><line class="n" x2="9.524" y2="191.188" transform="translate(504.903 249.01)"/><line class="n" x2="122.13" transform="translate(386.048 312.675)"/><line class="o" x1="2.091" y2="191.188" transform="translate(424.768 249.01)"/><rect class="p" width="116.279" height="5.228" transform="translate(388.848 251.848)"/><path class="q" d="M513.6,252.968H380.519a5.265,5.265,0,0,1-5.265-5.265h0a5.265,5.265,0,0,1,5.265-5.265H513.6a5.266,5.266,0,0,1,5.266,5.265h0A5.266,5.266,0,0,1,513.6,252.968Z"/><rect class="o" width="161.178" height="69.245" transform="translate(210.59 117.452)"/><rect class="r" width="40.553" height="4.095" transform="translate(228.365 133.97)"/><rect class="m" width="128.75" height="4.095" transform="translate(228.365 150.027)"/><rect class="m" width="128.75" height="4.095" transform="translate(228.365 166.084)"/><path class="r" d="M0,0H48.058a0,0,0,0,1,0,0V31.815a0,0,0,0,1,0,0H3.529A3.529,3.529,0,0,1,0,28.286V0A0,0,0,0,1,0,0Z" transform="translate(114.459 118.802)"/><path class="s" d="M117.372,115.89a2.912,2.912,0,1,0,0,5.825h45.145V115.89Z"/><line class="t" x2="44.548" transform="translate(117.969 118.802)"/><path class="u" d="M138.428,146.481v-1.623q-4.081-.138-4.3-5.027l2.628-.548q.09,3.276,1.872,3.276a1.214,1.214,0,0,0,1.015-.418,1.774,1.774,0,0,0,.329-1.125,3.537,3.537,0,0,0-.12-.956,2.674,2.674,0,0,0-.383-.806,5.463,5.463,0,0,0-.533-.658q-.269-.277-.727-.676l-2.16-1.882a6.06,6.06,0,0,1-1.423-1.737,4.861,4.861,0,0,1-.468-2.255,3.926,3.926,0,0,1,1.05-2.892,4.236,4.236,0,0,1,2.872-1.17v-1.533h.866v1.533a4.1,4.1,0,0,1,1.667.443,2.867,2.867,0,0,1,1.091,1.011,5.07,5.07,0,0,1,.593,1.354,9.016,9.016,0,0,1,.263,1.642l-2.579.508c-.013-.332-.034-.621-.065-.866a4.636,4.636,0,0,0-.154-.747,1.98,1.98,0,0,0-.278-.612,1.187,1.187,0,0,0-.458-.373,1.331,1.331,0,0,0-.687-.11,1.4,1.4,0,0,0-1.02.443,1.574,1.574,0,0,0-.354,1.08,2.475,2.475,0,0,0,.309,1.3,5.136,5.136,0,0,0,.975,1.1l2.151,1.872a12.281,12.281,0,0,1,.941.946,7.732,7.732,0,0,1,.765,1.045,4.786,4.786,0,0,1,.553,1.294,5.714,5.714,0,0,1,.19,1.493,3.98,3.98,0,0,1-.976,2.748,3.915,3.915,0,0,1-2.6,1.274v1.643Z"/><rect class="o" width="57.526" height="37.939" transform="translate(247.862 50.442)"/><path class="m" d="M292.373,60.6V58.806h-5.041v16.58H262.462v1.792h29.91V75.386h-3.249V60.6Z"/><circle class="m" cx="2.24" cy="2.24" r="2.24" transform="translate(264.366 77.178)"/><circle class="m" cx="2.24" cy="2.24" r="2.24" transform="translate(285.987 77.178)"/><path class="m" d="M285.2,58.806H259.886l2.577,14.731H285.2Z"/><rect class="o" width="51.185" height="33.757" transform="translate(506.669 62.54)"/><path class="r" d="M542.82,72.243c-3.23-6.118-10.559,1.35-10.559,1.35s-7.329-7.468-10.559-1.35C517.063,81.029,532.261,88.6,532.261,88.6S547.459,81.029,542.82,72.243Z"/><rect class="q" width="50.015" height="29.945" rx="4.407" transform="translate(584.468 133.391)"/><rect class="v" width="50.015" height="3.398" transform="translate(584.468 140.399)"/><rect class="u" width="6.867" height="3.327" transform="translate(590.025 152.859)"/><rect class="u" width="6.867" height="3.327" transform="translate(599.795 152.859)"/><rect class="u" width="13.946" height="3.327" transform="translate(609.564 152.859)"/><line class="o" x2="23.291" transform="translate(590.025 148.363)"/><path class="w" d="M461.045,144.2H420.268L424.8,91.612h30.583Z"/><path class="o" d="M426.293,92.546H445.86V85.414a9.783,9.783,0,0,0-9.784-9.784h0a9.783,9.783,0,0,0-9.783,9.784Z"/><path class="r" d="M453.241,144.2H412.464l4.531-52.584h30.583Z"/><circle class="o" cx="17.028" cy="17.028" r="17.028" transform="translate(532.261 204.425)"/><path class="r" d="M543.833,222.6a3.323,3.323,0,0,1-2.738-1.055,4.875,4.875,0,0,1-.856-3.126v-.876a4.813,4.813,0,0,1,.83-3.11,3.406,3.406,0,0,1,2.764-1,3.486,3.486,0,0,1,2.772.976,4.615,4.615,0,0,1,.841,3.056v1.006a4.767,4.767,0,0,1-.856,3.1A3.389,3.389,0,0,1,543.833,222.6Zm0-1.931a1.121,1.121,0,0,0,.533-.12.946.946,0,0,0,.347-.3,1.474,1.474,0,0,0,.2-.493,3.451,3.451,0,0,0,.1-.612c.014-.2.02-.447.02-.732v-.9c0-.3-.006-.542-.02-.731a3.954,3.954,0,0,0-.084-.573,1.139,1.139,0,0,0-.194-.453.923.923,0,0,0-.354-.264,1.335,1.335,0,0,0-.542-.1,1.262,1.262,0,0,0-.542.1.918.918,0,0,0-.35.263,1.117,1.117,0,0,0-.188.458,3.943,3.943,0,0,0-.085.577q-.02.279-.02.727v.906a8.239,8.239,0,0,0,.04.9,2.991,2.991,0,0,0,.159.692.94.94,0,0,0,.364.493A1.113,1.113,0,0,0,543.833,220.665Zm2.15,9.338,4.659-16.506H552.6L547.944,230Zm8.751.07A3.321,3.321,0,0,1,552,229.017a4.874,4.874,0,0,1-.856-3.126v-.876a4.8,4.8,0,0,1,.832-3.11,3.4,3.4,0,0,1,2.762-1,3.5,3.5,0,0,1,2.773.971,4.6,4.6,0,0,1,.84,3.051v1.015a4.771,4.771,0,0,1-.856,3.1A3.392,3.392,0,0,1,554.734,230.073Zm0-1.942a1.1,1.1,0,0,0,.537-.119,1.013,1.013,0,0,0,.349-.3,1.409,1.409,0,0,0,.2-.494,3.951,3.951,0,0,0,.089-.607c.014-.2.02-.441.02-.727v-.9c0-.3-.006-.541-.02-.732a4,4,0,0,0-.085-.577,1.151,1.151,0,0,0-.188-.453.94.94,0,0,0-.349-.263,1.294,1.294,0,0,0-.552-.105,1.273,1.273,0,0,0-.543.105.89.89,0,0,0-.348.269,1.148,1.148,0,0,0-.19.462,4.087,4.087,0,0,0-.084.578c-.013.185-.02.428-.02.726v.9a8.385,8.385,0,0,0,.04.9,2.913,2.913,0,0,0,.159.691.943.943,0,0,0,.363.488A1.118,1.118,0,0,0,554.734,228.131Z"/><path class="x" d="M323.2,273.207c14.638,44.213,14.022,108.93,9.541,135.816l10.675,3.019S370.1,339.227,359.944,284.26Z"/><path class="u" d="M343.417,412.043l13.841,17.8-28.935-9.915,4.419-10.9Z"/><path class="p" d="M291.534,280.041h55.046l.276,5.94H291.179Z"/><line class="n" x1="7.767" y2="161.613" transform="translate(283.767 278.585)"/><line class="n" x2="7.767" y2="161.613" transform="translate(346.501 278.585)"/><line class="n" x1="64.119" transform="translate(286.958 373.806)"/><rect class="q" width="76.625" height="10.53" rx="4.518" transform="translate(280.706 271.415)"/><path class="p" d="M338.307,170.817c-11.448-25.093-17.44-69.23,18.043-73.263,0,0,10.758-8.514,23.345,3.136s-4.217,40.553-2.425,62.286,25.542,41.673,10.306,60.717-35,14.14-42.37-13.655S338.307,170.817,338.307,170.817Z"/><path class="y" d="M342.319,362.378,350.384,370s35.4-15.683,41-51.083-19.044-62.957-35.623-75.728l-56.685-1.568s-6.945,24.869,18.6,34.055,39.657,1.792,47.5,28.678S342.319,362.378,342.319,362.378Z"/><path class="u" d="M350.384,370l4.033,22.181L333.357,370l8.962-7.618Z"/><path class="z" d="M338.307,140.539l9.053,4.289,4.111-8.866s12.954,9.538,19.376-3.9a5.657,5.657,0,0,0,3.959,0s-1.513-7.674,1.176-14.675c0,0-5.225-9.606-10.922-4.257-3.649,3.426-7.226,5.433-8.57,3.977-1.33-1.441,2.334-4.911-.389-7.774a5.576,5.576,0,0,0-8.555.7c-4.422,6.729,1.121,9.858,1.121,9.858Z"/><path class="aa" d="M368.383,129.118a6.133,6.133,0,1,0-6.133,6.133A6.133,6.133,0,0,0,368.383,129.118Z"/><path class="ab" d="M366.367,119.212a4.857,4.857,0,0,1,4.032,2.539"/><path class="ab" d="M348.345,112.812a10.378,10.378,0,0,1,.9-1.667,3.371,3.371,0,0,1,2.855-1.456,3.471,3.471,0,0,1,2.247.788"/><path class="ab" d="M350.946,109.875a5.363,5.363,0,0,0,.783,2.937"/><path class="ac" d="M350.029,139.072h0l1.442-3.11a32.358,32.358,0,0,1-3.859-2.7A5.779,5.779,0,0,0,350.029,139.072Z"/><path class="v" d="M362.25,248.625c-19.259,12.036-32.821,19.2-69.446,11.363,0,0,6.273-34.951,11.651-67.886s17.251-53.548,35.175-52.2,23.516,39.656,20.613,64.75,2.007,43.017,2.007,43.017"/><path class="ad" d="M345.206,154.506c.7,1.524-11.925,16.057-11.925,16.057-.148,17.954,6.337,51.227,26.179,56.057h0a138.26,138.26,0,0,1,.783-21.971c1.6-13.829.612-31.662-3.59-45.12C349.784,156.219,345,154.062,345.206,154.506Z"/><path class="z" d="M412.969,230.489s-10.456-4.332-27.334-17.625c-8.5-6.691-14.53-19.21-19.827-32.094L341.97,192.9c19.8,30.988,66.219,45.5,66.219,45.5h23.6C430.444,228.846,412.969,230.489,412.969,230.489Z"/><path class="v" d="M350.637,146.806s-29.229,3.922-12.351,39.471a60.723,60.723,0,0,0,3.684,6.624c11.116-3.1,18.755-7.792,23.838-12.131C360.582,168.056,356.075,154.986,350.637,146.806Z"/></g></svg>